<svg id="Layer_1" data-name="Layer 1" xmlns="http://www.w3.org/2000/svg" viewBox="0 0 143.89 95.53"><defs><style>.cls-1{fill:#fff;}.cls-2{fill:#231f20;}</style></defs><polygon class="cls-1" points="143.8 0 142.98 0 0.83 0 0 0 0 0.74 0 67.94 0 68.67 0.83 68.67 143.89 68.67 143.89 0 143.8 0"/><path class="cls-2" d="M143,.74v67.2H.83V.74H143" transform="translate(0)"/><rect class="cls-1" x="2.9" y="3.12" width="39.66" height="11.15"/><rect class="cls-1" x="2.88" y="16.7" width="39.68" height="40.97"/><polygon class="cls-1" points="2.89 65.52 2.89 60.08 10.86 60.08 10.86 61.35 6.09 61.35 6.09 62.13 10.13 62.13 10.13 63.4 6.09 63.4 6.09 64.25 11.04 64.25 11.04 65.52 2.89 65.52"/><path class="cls-1" d="M17.81,61.66a.62.62,0,0,0-.46-.37,3.31,3.31,0,0,0-.83-.1c-.7,0-1,.12-1,.32,0,.81,5.62.3,5.62,2.28,0,1.26-1.89,1.88-4.57,1.88s-4.26-.84-4.33-1.83h3.07a.77.77,0,0,0,.53.43,2.9,2.9,0,0,0,.91.14c.8,0,1.33-.14,1.33-.4,0-.82-5.62-.26-5.62-2.33,0-1.16,1.79-1.74,4.24-1.74,2.71,0,3.94.77,4.18,1.72Z" transform="translate(0)"/><path class="cls-1" d="M25.91,62.44h1.26c1,0,1.52-.15,1.52-.52s-.54-.57-1.28-.57h-1.5Zm0,1.18v1.9h-3.2V60.08h4.62c3.25,0,4.32.5,4.32,1.55,0,.63-.5,1.16-1.64,1.34,1,.21,1.66.33,1.66,1.43,0,.71,0,.95.34.95v.17H28.76a2.1,2.1,0,0,1-.16-1c0-.72-.22-.95-1.71-.95Z" transform="translate(0)"/><path class="cls-1" d="M36.82,61.35v.91h1.33c.64,0,1.1-.16,1.1-.47s-.63-.44-1.3-.44Zm0,1.9v1h1.4c.79,0,1.38-.09,1.38-.5s-.74-.5-1.76-.5Zm-3.2,2.27V60.08h4.67c2.2,0,4,.29,4,1.37,0,.56-.66,1-1.28,1.18,1.06.16,1.63.66,1.63,1.25,0,1.21-1.67,1.64-4.21,1.64Z" transform="translate(0)"/><rect class="cls-1" x="44.97" y="3.11" width="95.64" height="62.42"/><path class="cls-2" d="M25.25,47.58H23.54v.94h1.71v1.66h1V48.52h1.71v-.94H26.22V45.92h-1Zm-2.73-.42c0-3.3-1.77-5.26-4.71-5.26-4,0-4.94,2.71-4.94,5.26,0,3.11,1.56,5.26,4.82,5.26s4.83-2.15,4.83-5.26M5.9,26.15l24-7.18,2.41,7.62-12,3.59,1,3.11L32.41,30l2.4,7.61L23.69,40.9l1,3.28,12.44-3.71,2.41,7.6-24.43,7.3L5.9,26.15M6.81,45.4A7.87,7.87,0,0,0,9.8,44v8h2.26v-10H9.86a7.79,7.79,0,0,1-3,1.53V45.4" transform="translate(0)"/><path class="cls-2" d="M14.94,47.07C15,43.73,16.28,43,17.8,43c1.69,0,2.65,1.28,2.64,4.2,0,1.83-.5,4.06-2.67,4.05s-2.84-1.71-2.83-4.14" transform="translate(0)"/><path class="cls-2" d="M4,11.83V5.55H6.44v1H4.91V8.07H6.32V9H4.91v1.83H6.49v1Z" transform="translate(0)"/><path class="cls-2" d="M6.74,5.55h1l.7,4.57h0l.8-4.57h.94L9,11.83H7.86Z" transform="translate(0)"/><path class="cls-2" d="M10.6,11.83V5.55h2.48v1H11.55V8.07H13V9H11.55v1.83h1.58v1Z" transform="translate(0)"/><path class="cls-2" d="M14.68,11.83h-.95V5.55h1.75a.92.92,0,0,1,.78.42,2.19,2.19,0,0,1,.29,1.23,2.49,2.49,0,0,1-.19,1,.91.91,0,0,1-.65.52v0l.21.05a.77.77,0,0,1,.27.16,1,1,0,0,1,.24.36,1.93,1.93,0,0,1,.1.67v.41c0,.18,0,.37,0,.56s0,.37,0,.53,0,.27.05.34h-.92a1.76,1.76,0,0,1-.1-.6c0-.21,0-.42,0-.62v-.53a1.46,1.46,0,0,0-.06-.44.56.56,0,0,0-.61-.41h-.25Zm0-3.56h.42a.32.32,0,0,0,.23-.09A.48.48,0,0,0,15.48,8a1,1,0,0,0,.08-.3,1.8,1.8,0,0,0,0-.31,1.2,1.2,0,0,0-.13-.64.41.41,0,0,0-.36-.19h-.42Z" transform="translate(0)"/><path class="cls-2" d="M18,9.66,16.8,5.55h1l.67,2.65.73-2.65h1L18.94,9.66v2.17H18Z" transform="translate(0)"/><path class="cls-2" d="M22.17,11.93a1.34,1.34,0,0,1-.9-.27,1.6,1.6,0,0,1-.47-.73,4,4,0,0,1-.17-1c0-.39,0-.79,0-1.2s0-.82,0-1.21a4,4,0,0,1,.17-1,1.6,1.6,0,0,1,.47-.73,1.34,1.34,0,0,1,.9-.27,1.39,1.39,0,0,1,.91.27,1.58,1.58,0,0,1,.46.73,4,4,0,0,1,.17,1c0,.39,0,.8,0,1.21s0,.81,0,1.2a4,4,0,0,1-.17,1,1.58,1.58,0,0,1-.46.73A1.39,1.39,0,0,1,22.17,11.93Zm0-.94a.39.39,0,0,0,.32-.13,1,1,0,0,0,.19-.41,5.61,5.61,0,0,0,.08-.72c0-.29,0-.64,0-1s0-.74,0-1a5.23,5.23,0,0,0-.08-.71,1.1,1.1,0,0,0-.19-.42.43.43,0,0,0-.32-.13.44.44,0,0,0-.32.13,1,1,0,0,0-.18.42,4,4,0,0,0-.08.71c0,.3,0,.64,0,1s0,.75,0,1a4.25,4.25,0,0,0,.08.72.92.92,0,0,0,.18.41A.41.41,0,0,0,22.17,11Z" transform="translate(0)"/><path class="cls-2" d="M24.5,11.83V5.55h1.28L27,9.9h0V5.55h.89v6.28H26.64L25.4,7.24h0v4.59Z" transform="translate(0)"/><path class="cls-2" d="M28.69,11.83V5.55h2.48v1H29.64V8.07h1.41V9H29.64v1.83h1.58v1Z" transform="translate(0)"/><path class="cls-2" d="M33.14,6.55a4.58,4.58,0,0,0,.46-.42,2.88,2.88,0,0,0,.4-.55h.83v6.25h-.94V7a4.43,4.43,0,0,1-.36.38l-.39.32Z" transform="translate(0)"/><path class="cls-2" d="M37,5.5a1.2,1.2,0,0,1,.66.16,1,1,0,0,1,.39.54,3.82,3.82,0,0,1,.18,1c0,.4,0,.9,0,1.5s0,.93,0,1.33a4.59,4.59,0,0,1-.15,1,1.43,1.43,0,0,1-.39.65,1.17,1.17,0,0,1-1.39,0,1.43,1.43,0,0,1-.39-.65,5.22,5.22,0,0,1-.16-1c0-.4,0-.84,0-1.33s0-1.1,0-1.5a3.82,3.82,0,0,1,.18-1,1,1,0,0,1,.39-.54A1.14,1.14,0,0,1,37,5.5Zm0,.92a.29.29,0,0,0-.22.08,1,1,0,0,0-.11.34,5.55,5.55,0,0,0,0,.69c0,.3,0,.69,0,1.17s0,.86,0,1.16,0,.53.05.7a.81.81,0,0,0,.12.34.25.25,0,0,0,.2.1.27.27,0,0,0,.21-.1.81.81,0,0,0,.12-.34,5.52,5.52,0,0,0,0-.7c0-.3,0-.68,0-1.16s0-.87,0-1.17a5.55,5.55,0,0,0,0-.69.81.81,0,0,0-.12-.34A.27.27,0,0,0,37,6.42Z" transform="translate(0)"/><path class="cls-2" d="M39.65,6.77h.7V8.48h1.06v1H40.35v1.71h-.7V9.45H38.58v-1h1.07Z" transform="translate(0)"/><path d="M61.93,36.85V29.69h4v.84H62.71v2.22h2.75v.84H62.71v3.26Z" transform="translate(0)"/><path d="M69.55,36.21a2.53,2.53,0,0,1-.75.56A1.78,1.78,0,0,1,68,37a1.42,1.42,0,0,1-1.06-.4,1.46,1.46,0,0,1-.39-1.08,1.67,1.67,0,0,1,.18-.79,1.4,1.4,0,0,1,.51-.54,2.6,2.6,0,0,1,1-.29,5.78,5.78,0,0,0,1.29-.31v-.22a1.11,1.11,0,0,0-.19-.75,1,1,0,0,0-.83-.31,1.22,1.22,0,0,0-.75.2,1.35,1.35,0,0,0-.36.79l-.71-.12a2,2,0,0,1,.61-1.22,2.05,2.05,0,0,1,1.32-.38,1.94,1.94,0,0,1,1,.25,1,1,0,0,1,.48.63,4.28,4.28,0,0,1,.1,1.08v1.17a14.76,14.76,0,0,0,0,1.55,2.38,2.38,0,0,0,.18.63H69.7A2.74,2.74,0,0,1,69.55,36.21Zm0-2a5,5,0,0,1-1.18.34,2.53,2.53,0,0,0-.64.17.78.78,0,0,0-.28.29.93.93,0,0,0-.1.42.79.79,0,0,0,.23.59.89.89,0,0,0,.64.22,1.24,1.24,0,0,0,.7-.2,1.27,1.27,0,0,0,.47-.53,2.43,2.43,0,0,0,.16-1Z" transform="translate(0)"/><path d="M71.35,36.85V31.66H72v.73a1.7,1.7,0,0,1,.57-.64,1.42,1.42,0,0,1,.78-.21,1.52,1.52,0,0,1,.63.14,1.17,1.17,0,0,1,.46.35,1.39,1.39,0,0,1,.27.56,4.64,4.64,0,0,1,.09,1.07v3.19h-.72V33.69a2.51,2.51,0,0,0-.1-.84.83.83,0,0,0-.3-.41.87.87,0,0,0-.48-.14,1,1,0,0,0-.83.39A2.18,2.18,0,0,0,72.06,34v2.84Z" transform="translate(0)"/><path d="M77.51,36.06l.1.78a2.22,2.22,0,0,1-.54.07,1.22,1.22,0,0,1-.61-.14.79.79,0,0,1-.31-.41,3.77,3.77,0,0,1-.09-1v-3h-.52v-.68h.52V30.38l.72-.53v1.81h.73v.68h-.73v3a1.49,1.49,0,0,0,.06.54.36.36,0,0,0,.35.17Z" transform="translate(0)"/><path d="M81,36.21a2.7,2.7,0,0,1-.76.56,1.78,1.78,0,0,1-.81.19,1.42,1.42,0,0,1-1.06-.4,1.46,1.46,0,0,1-.39-1.08,1.67,1.67,0,0,1,.18-.79,1.47,1.47,0,0,1,.51-.54,2.66,2.66,0,0,1,1-.29,5.78,5.78,0,0,0,1.29-.31v-.22a1.11,1.11,0,0,0-.19-.75,1,1,0,0,0-.82-.31,1.23,1.23,0,0,0-.76.2,1.42,1.42,0,0,0-.36.79l-.71-.12a2,2,0,0,1,.61-1.22A2.05,2.05,0,0,1,80,31.54a1.94,1.94,0,0,1,1.05.25,1,1,0,0,1,.48.63,4.28,4.28,0,0,1,.1,1.08v1.17a14.76,14.76,0,0,0,0,1.55,2.38,2.38,0,0,0,.18.63H81.1A2.32,2.32,0,0,1,81,36.21Zm-.06-2a5,5,0,0,1-1.18.34,2.66,2.66,0,0,0-.64.17.78.78,0,0,0-.28.29.93.93,0,0,0-.1.42.79.79,0,0,0,.23.59.89.89,0,0,0,.64.22,1.22,1.22,0,0,0,.7-.2,1.2,1.2,0,0,0,.47-.53,2.43,2.43,0,0,0,.16-1Z" transform="translate(0)"/><path d="M82.47,35.29l.72-.13a1.24,1.24,0,0,0,.34.81,1,1,0,0,0,.75.27A1.08,1.08,0,0,0,85,36a.76.76,0,0,0,.25-.59.58.58,0,0,0-.22-.48,2.74,2.74,0,0,0-.73-.29,5.18,5.18,0,0,1-1.12-.44,1.2,1.2,0,0,1-.44-.48,1.46,1.46,0,0,1-.16-.69A1.42,1.42,0,0,1,83,32a1.58,1.58,0,0,1,1.17-.42,1.92,1.92,0,0,1,.83.17,1.33,1.33,0,0,1,.55.46,2,2,0,0,1,.27.83l-.71.12a.84.84,0,0,0-.92-.85,1.15,1.15,0,0,0-.7.18.62.62,0,0,0-.23.48.55.55,0,0,0,.22.45,3.83,3.83,0,0,0,.79.32,6.07,6.07,0,0,1,1.15.45,1,1,0,0,1,.41.46,1.47,1.47,0,0,1,.15.69,1.6,1.6,0,0,1-.47,1.2,1.77,1.77,0,0,1-1.29.46A1.67,1.67,0,0,1,82.47,35.29Z" transform="translate(0)"/><path d="M86.82,38.84,86.75,38a1.4,1.4,0,0,0,.41.08.74.74,0,0,0,.38-.1.67.67,0,0,0,.24-.28s.12-.34.29-.87l-1.62-5.19h.77l.89,3c.11.38.22.78.31,1.2.08-.4.18-.79.29-1.18l.91-3h.72l-1.61,5.27a9.16,9.16,0,0,1-.5,1.37,1.26,1.26,0,0,1-.42.5.93.93,0,0,1-.52.15A1.32,1.32,0,0,1,86.82,38.84Z" transform="translate(0)"/><path d="M95,36.85l-2.28-7.16h.84l1.53,5.2c.12.4.22.79.31,1.17.09-.39.19-.78.31-1.17l1.59-5.2h.79l-2.3,7.16Z" transform="translate(0)"/><path d="M98.56,30.7v-1h.72v1Zm0,6.15V31.66h.72v5.19Z" transform="translate(0)"/><path d="M100.11,34.25a3.08,3.08,0,0,1,.56-2,1.82,1.82,0,0,1,2.85,0,3,3,0,0,1,.57,2,3.27,3.27,0,0,1-.56,2.08,1.76,1.76,0,0,1-1.43.68,1.8,1.8,0,0,1-1.43-.68A3.11,3.11,0,0,1,100.11,34.25Zm.73,0a2.48,2.48,0,0,0,.37,1.5,1.09,1.09,0,0,0,.91.49,1,1,0,0,0,.87-.5,2.52,2.52,0,0,0,.36-1.49,2.5,2.5,0,0,0-.36-1.49,1.1,1.1,0,0,0-.91-.49,1.06,1.06,0,0,0-.88.49A2.54,2.54,0,0,0,100.84,34.25Z" transform="translate(0)"/><path d="M104.92,36.85V29.69h.71v7.16Z" transform="translate(0)"/><path d="M109.67,35.18l.74.11a2.31,2.31,0,0,1-.67,1.25,1.93,1.93,0,0,1-2.67-.26,3.09,3.09,0,0,1-.56-2,3.19,3.19,0,0,1,.57-2,1.74,1.74,0,0,1,1.42-.71,1.69,1.69,0,0,1,1.38.7,3.13,3.13,0,0,1,.55,2v.24h-3.18a2.27,2.27,0,0,0,.41,1.32,1.1,1.1,0,0,0,.88.44C109.08,36.24,109.45,35.89,109.67,35.18Zm-2.37-1.42h2.37a2,2,0,0,0-.29-1,1,1,0,0,0-.88-.48,1.05,1.05,0,0,0-.83.4A1.8,1.8,0,0,0,107.3,33.76Z" transform="translate(0)"/><path d="M111.32,36.85V31.66H112v.73a1.89,1.89,0,0,1,.57-.64,1.52,1.52,0,0,1,1.41-.07,1.21,1.21,0,0,1,.47.35,1.39,1.39,0,0,1,.27.56,5.45,5.45,0,0,1,.08,1.07v3.19h-.71V33.69a2.8,2.8,0,0,0-.1-.84.92.92,0,0,0-.31-.41.87.87,0,0,0-.48-.14,1,1,0,0,0-.82.39A2.11,2.11,0,0,0,112,34v2.84Z" transform="translate(0)"/><path d="M118.67,35l.7.11a2.36,2.36,0,0,1-.61,1.42,1.63,1.63,0,0,1-1.18.48,1.68,1.68,0,0,1-1.37-.68,3.25,3.25,0,0,1-.54-2,3.21,3.21,0,0,1,.54-2,1.72,1.72,0,0,1,1.4-.68,1.6,1.6,0,0,1,1.11.41,2,2,0,0,1,.58,1.23l-.7.13a1.57,1.57,0,0,0-.35-.78.82.82,0,0,0-.62-.26,1.05,1.05,0,0,0-.88.47,2.53,2.53,0,0,0-.35,1.49,2.76,2.76,0,0,0,.34,1.54,1,1,0,0,0,.86.47.93.93,0,0,0,.7-.31A1.82,1.82,0,0,0,118.67,35Z" transform="translate(0)"/><path d="M122.89,35.18l.74.11a2.25,2.25,0,0,1-.67,1.25,1.77,1.77,0,0,1-1.2.42,1.83,1.83,0,0,1-1.47-.68,3.09,3.09,0,0,1-.56-2,3.19,3.19,0,0,1,.57-2,1.75,1.75,0,0,1,1.43-.71,1.66,1.66,0,0,1,1.37.7,3.13,3.13,0,0,1,.56,2v.24h-3.17a2.27,2.27,0,0,0,.4,1.32,1.12,1.12,0,0,0,.88.44C122.3,36.24,122.68,35.89,122.89,35.18Zm-2.37-1.42h2.37a2,2,0,0,0-.28-1,1.07,1.07,0,0,0-.89-.48,1,1,0,0,0-.82.4A1.74,1.74,0,0,0,120.52,33.76Z" transform="translate(0)"/><rect class="cls-1" y="67.72" width="143.89" height="27.81"/><rect class="cls-2" x="0.83" y="67.67" width="142.13" height="26.88"/><rect class="cls-1" x="1.82" y="68.63" width="140.16" height="24.92"/><rect class="cls-2" x="8.84" y="71.6" width="0.76" height="5.73"/><path class="cls-2" d="M10.84,77.33V73.18h.63v.59a1.49,1.49,0,0,1,1.32-.68,1.73,1.73,0,0,1,.69.13,1,1,0,0,1,.47.36,1.17,1.17,0,0,1,.22.52,3.48,3.48,0,0,1,0,.68v2.55h-.7V74.81a2.11,2.11,0,0,0-.08-.65.79.79,0,0,0-.29-.34,1,1,0,0,0-.49-.12,1.15,1.15,0,0,0-.78.28,1.39,1.39,0,0,0-.33,1.08v2.27Z" transform="translate(0)"/><rect class="cls-2" x="15.02" y="74.9" width="2.16" height="0.71"/><path class="cls-2" d="M20.72,75.08v-.67h2.43v2.12A4.25,4.25,0,0,1,22,77.2a3.47,3.47,0,0,1-1.22.23,3.3,3.3,0,0,1-1.54-.36,2.45,2.45,0,0,1-1-1,3.35,3.35,0,0,1-.35-1.53,3.63,3.63,0,0,1,.35-1.56,2.29,2.29,0,0,1,1-1.07,3.09,3.09,0,0,1,1.51-.35,2.87,2.87,0,0,1,1.12.2,1.8,1.8,0,0,1,.79.56,2.51,2.51,0,0,1,.43.93l-.68.19a2.22,2.22,0,0,0-.32-.69,1.38,1.38,0,0,0-.55-.4,2,2,0,0,0-.79-.15,2.49,2.49,0,0,0-.9.16,1.84,1.84,0,0,0-.61.42,2.23,2.23,0,0,0-.36.56,3.15,3.15,0,0,0-.22,1.16,2.75,2.75,0,0,0,.27,1.28,1.65,1.65,0,0,0,.76.76,2.37,2.37,0,0,0,1.07.25,2.83,2.83,0,0,0,1.68-.59V75.08Z" transform="translate(0)"/><path class="cls-2" d="M26.88,76.82a2.87,2.87,0,0,1-.75.47,2.19,2.19,0,0,1-.77.13,1.5,1.5,0,0,1-1.05-.33,1.09,1.09,0,0,1-.37-.85,1.06,1.06,0,0,1,.14-.56,1.19,1.19,0,0,1,.36-.41A2,2,0,0,1,25,75a5.34,5.34,0,0,1,.62-.1,6.71,6.71,0,0,0,1.25-.24,1.77,1.77,0,0,0,0-.19.77.77,0,0,0-.2-.6,1.18,1.18,0,0,0-.8-.24,1.27,1.27,0,0,0-.73.17,1,1,0,0,0-.35.62l-.69-.1a1.6,1.6,0,0,1,.31-.71,1.36,1.36,0,0,1,.62-.42,3,3,0,0,1,.94-.14,2.58,2.58,0,0,1,.86.12,1.16,1.16,0,0,1,.49.32,1,1,0,0,1,.22.48,4,4,0,0,1,0,.64v.94a10.35,10.35,0,0,0,0,1.24,1.58,1.58,0,0,0,.18.5H27A1.59,1.59,0,0,1,26.88,76.82Zm-.06-1.57a5.12,5.12,0,0,1-1.14.26,2.76,2.76,0,0,0-.62.14.62.62,0,0,0-.27.23.57.57,0,0,0-.1.34.59.59,0,0,0,.21.46.89.89,0,0,0,.62.19,1.46,1.46,0,0,0,.73-.18,1.07,1.07,0,0,0,.46-.48,1.65,1.65,0,0,0,.11-.7Z" transform="translate(0)"/><path class="cls-2" d="M28.63,77.33V73.18h.62v.58a1.63,1.63,0,0,1,.52-.49,1.53,1.53,0,0,1,.74-.18,1.36,1.36,0,0,1,.76.19,1,1,0,0,1,.41.53A1.5,1.5,0,0,1,33,73.09a1.23,1.23,0,0,1,.94.34,1.43,1.43,0,0,1,.34,1v2.85h-.7V74.72a2.05,2.05,0,0,0-.07-.61.61.61,0,0,0-.25-.3.73.73,0,0,0-.42-.11,1,1,0,0,0-.73.29,1.28,1.28,0,0,0-.29.93v2.41h-.7v-2.7a1.22,1.22,0,0,0-.17-.7.64.64,0,0,0-.56-.23,1.06,1.06,0,0,0-.55.15.94.94,0,0,0-.37.46,2.74,2.74,0,0,0-.11.87v2.15Z" transform="translate(0)"/><path class="cls-2" d="M38.13,76l.73.09a1.78,1.78,0,0,1-.64,1,1.89,1.89,0,0,1-1.19.35,1.85,1.85,0,0,1-1.44-.56,2.16,2.16,0,0,1-.53-1.57,2.26,2.26,0,0,1,.53-1.62,1.82,1.82,0,0,1,1.4-.58,1.79,1.79,0,0,1,1.36.56,2.27,2.27,0,0,1,.53,1.6v.18h-3.1a1.62,1.62,0,0,0,.39,1,1.16,1.16,0,0,0,.87.37,1.08,1.08,0,0,0,.66-.21A1.35,1.35,0,0,0,38.13,76Zm-2.31-1.13h2.32a1.39,1.39,0,0,0-.27-.79,1.06,1.06,0,0,0-.87-.4,1.09,1.09,0,0,0-.81.32A1.27,1.27,0,0,0,35.82,74.86Z" transform="translate(0)"/><path class="cls-2" d="M42.05,77.33V71.6h2.16a4.75,4.75,0,0,1,.87.06,1.55,1.55,0,0,1,.71.27,1.4,1.4,0,0,1,.46.55,1.79,1.79,0,0,1,.17.78A1.76,1.76,0,0,1,46,74.5a2.26,2.26,0,0,1-1.68.5H42.81v2.33Zm.76-3h1.48a1.56,1.56,0,0,0,1-.28,1,1,0,0,0,.31-.77,1,1,0,0,0-.18-.61.83.83,0,0,0-.48-.34,3.54,3.54,0,0,0-.71,0H42.81Z" transform="translate(0)"/><path class="cls-2" d="M50,77.33v-.61a1.53,1.53,0,0,1-1.32.7,1.61,1.61,0,0,1-.69-.14,1.1,1.1,0,0,1-.47-.35,1.54,1.54,0,0,1-.22-.52,4.76,4.76,0,0,1,0-.66V73.18H48v2.3a3.68,3.68,0,0,0,.05.74.74.74,0,0,0,.28.44.9.9,0,0,0,.53.16,1.21,1.21,0,0,0,.59-.16.92.92,0,0,0,.4-.45,2.34,2.34,0,0,0,.11-.81V73.18h.71v4.15Z" transform="translate(0)"/><path class="cls-2" d="M51.74,77.33V73.18h.63v.63a1.56,1.56,0,0,1,.45-.58.75.75,0,0,1,.45-.14,1.34,1.34,0,0,1,.72.22l-.24.66a.93.93,0,0,0-.52-.16.68.68,0,0,0-.41.14.73.73,0,0,0-.26.39,2.66,2.66,0,0,0-.12.82v2.17Z" transform="translate(0)"/><path class="cls-2" d="M57.12,75.81l.69.09A1.82,1.82,0,0,1,57.23,77a1.68,1.68,0,0,1-1.15.4,1.79,1.79,0,0,1-1.37-.55,2.29,2.29,0,0,1-.51-1.6,2.81,2.81,0,0,1,.22-1.17,1.53,1.53,0,0,1,.68-.76,2,2,0,0,1,1-.25,1.7,1.7,0,0,1,1.1.34,1.55,1.55,0,0,1,.55,1l-.68.11a1.14,1.14,0,0,0-.35-.63.88.88,0,0,0-.6-.21,1.07,1.07,0,0,0-.86.38,1.79,1.79,0,0,0-.33,1.2,1.86,1.86,0,0,0,.32,1.22,1,1,0,0,0,.83.38,1,1,0,0,0,.7-.26A1.29,1.29,0,0,0,57.12,75.81Z" transform="translate(0)"/><path class="cls-2" d="M58.41,77.33V71.6h.7v2.06a1.59,1.59,0,0,1,1.25-.57,1.71,1.71,0,0,1,.8.18,1.05,1.05,0,0,1,.48.5,2.24,2.24,0,0,1,.15.93v2.63h-.7V74.7a1.11,1.11,0,0,0-.23-.77.85.85,0,0,0-.65-.24,1.24,1.24,0,0,0-.59.16,1,1,0,0,0-.39.44,2,2,0,0,0-.12.77v2.27Z" transform="translate(0)"/><path class="cls-2" d="M65.57,76.82a2.87,2.87,0,0,1-.75.47,2.24,2.24,0,0,1-.78.13A1.5,1.5,0,0,1,63,77.09a1.09,1.09,0,0,1-.37-.85,1.16,1.16,0,0,1,.14-.56,1.19,1.19,0,0,1,.36-.41,2,2,0,0,1,.51-.23,6.21,6.21,0,0,1,.62-.1,7,7,0,0,0,1.26-.24v-.19a.74.74,0,0,0-.2-.6,1.16,1.16,0,0,0-.8-.24,1.29,1.29,0,0,0-.73.17,1.08,1.08,0,0,0-.35.62l-.69-.1a1.86,1.86,0,0,1,.31-.71,1.36,1.36,0,0,1,.62-.42,3,3,0,0,1,.94-.14,2.6,2.6,0,0,1,.87.12,1.23,1.23,0,0,1,.49.32,1.06,1.06,0,0,1,.21.48,3.07,3.07,0,0,1,0,.64v.94a10.35,10.35,0,0,0,0,1.24,1.58,1.58,0,0,0,.18.5h-.73A1.37,1.37,0,0,1,65.57,76.82Zm-.06-1.57a5.38,5.38,0,0,1-1.15.26,2.64,2.64,0,0,0-.61.14.65.65,0,0,0-.28.23.57.57,0,0,0-.1.34.59.59,0,0,0,.21.46.91.91,0,0,0,.63.19,1.43,1.43,0,0,0,.72-.18,1.09,1.09,0,0,0,.47-.48,1.83,1.83,0,0,0,.11-.7Z" transform="translate(0)"/><path class="cls-2" d="M67,76.09l.69-.11a1,1,0,0,0,.33.64,1.14,1.14,0,0,0,.75.23,1.12,1.12,0,0,0,.72-.2.61.61,0,0,0,.23-.47.43.43,0,0,0-.21-.37,3.09,3.09,0,0,0-.72-.24,6.18,6.18,0,0,1-1.07-.34,1,1,0,0,1-.45-.39,1.07,1.07,0,0,1-.15-.56,1.13,1.13,0,0,1,.12-.51,1.1,1.1,0,0,1,.35-.39,1.58,1.58,0,0,1,.45-.21,1.94,1.94,0,0,1,.6-.08,2.28,2.28,0,0,1,.86.14,1.07,1.07,0,0,1,.54.38,1.5,1.5,0,0,1,.25.64l-.69.1a.71.71,0,0,0-.27-.5.94.94,0,0,0-.64-.18,1.13,1.13,0,0,0-.69.16.45.45,0,0,0-.21.37.4.4,0,0,0,.09.25.71.71,0,0,0,.27.18l.62.18a10.35,10.35,0,0,1,1,.33,1.08,1.08,0,0,1,.47.37,1,1,0,0,1,.16.6,1.19,1.19,0,0,1-.2.66,1.34,1.34,0,0,1-.59.48,2.06,2.06,0,0,1-.88.17,2,2,0,0,1-1.23-.33A1.61,1.61,0,0,1,67,76.09Z" transform="translate(0)"/><path class="cls-2" d="M74.15,76l.73.09a1.78,1.78,0,0,1-.64,1,1.89,1.89,0,0,1-1.19.35,1.85,1.85,0,0,1-1.44-.56,2.17,2.17,0,0,1-.54-1.57,2.26,2.26,0,0,1,.54-1.62,1.82,1.82,0,0,1,1.4-.58,1.79,1.79,0,0,1,1.36.56,2.27,2.27,0,0,1,.53,1.6v.18H71.8a1.62,1.62,0,0,0,.39,1,1.16,1.16,0,0,0,.87.37,1.08,1.08,0,0,0,.66-.21A1.35,1.35,0,0,0,74.15,76Zm-2.31-1.13h2.32a1.39,1.39,0,0,0-.27-.79,1.06,1.06,0,0,0-.87-.4,1.09,1.09,0,0,0-.81.32A1.23,1.23,0,0,0,71.84,74.86Z" transform="translate(0)"/><path class="cls-2" d="M75.48,76.09l.69-.11a1,1,0,0,0,.33.64,1.14,1.14,0,0,0,.75.23,1.12,1.12,0,0,0,.72-.2.61.61,0,0,0,.23-.47.43.43,0,0,0-.21-.37,3.09,3.09,0,0,0-.72-.24,6.18,6.18,0,0,1-1.07-.34,1,1,0,0,1-.45-.39,1.08,1.08,0,0,1-.16-.56,1.14,1.14,0,0,1,.13-.51,1.1,1.1,0,0,1,.35-.39,1.5,1.5,0,0,1,.44-.21,2,2,0,0,1,.61-.08,2.28,2.28,0,0,1,.86.14,1.12,1.12,0,0,1,.54.38,1.5,1.5,0,0,1,.25.64l-.69.1a.71.71,0,0,0-.27-.5.94.94,0,0,0-.64-.18,1.13,1.13,0,0,0-.69.16.45.45,0,0,0-.21.37.4.4,0,0,0,.09.25.71.71,0,0,0,.27.18l.62.18c.5.14.84.25,1,.33a1,1,0,0,1,.46.37,1,1,0,0,1,.17.6,1.19,1.19,0,0,1-.2.66,1.31,1.31,0,0,1-.6.48,2,2,0,0,1-.87.17A2,2,0,0,1,76,77.09,1.56,1.56,0,0,1,75.48,76.09Z" transform="translate(0)"/><polygon class="cls-2" points="81.45 77.43 83.11 71.5 83.68 71.5 82.02 77.43 81.45 77.43"/><path class="cls-2" d="M90.27,71.6H91v3.31a3.92,3.92,0,0,1-.19,1.37,1.67,1.67,0,0,1-.71.83,2.51,2.51,0,0,1-1.34.32,2.79,2.79,0,0,1-1.31-.28,1.58,1.58,0,0,1-.73-.8,3.75,3.75,0,0,1-.22-1.44V71.6h.75v3.31a3.33,3.33,0,0,0,.14,1.1,1.14,1.14,0,0,0,.48.54,1.64,1.64,0,0,0,.83.19,1.56,1.56,0,0,0,1.19-.38,2.2,2.2,0,0,0,.35-1.45Z" transform="translate(0)"/><path class="cls-2" d="M91.92,76.09l.7-.11a1,1,0,0,0,.32.64,1.14,1.14,0,0,0,.75.23,1.12,1.12,0,0,0,.72-.2.58.58,0,0,0,.23-.47.42.42,0,0,0-.2-.37,3.52,3.52,0,0,0-.72-.24,5.89,5.89,0,0,1-1.07-.34,1,1,0,0,1-.46-.39,1.07,1.07,0,0,1-.15-.56,1,1,0,0,1,.13-.51,1.07,1.07,0,0,1,.34-.39,1.58,1.58,0,0,1,.45-.21,2,2,0,0,1,.61-.08,2.23,2.23,0,0,1,.85.14,1.15,1.15,0,0,1,.55.38,1.38,1.38,0,0,1,.24.64l-.69.1a.71.71,0,0,0-.27-.5.93.93,0,0,0-.63-.18,1.09,1.09,0,0,0-.69.16.45.45,0,0,0-.21.37.46.46,0,0,0,.08.25.71.71,0,0,0,.27.18l.62.18q.75.21,1,.33a1.05,1.05,0,0,1,.46.37,1,1,0,0,1,.17.6,1.13,1.13,0,0,1-.21.66,1.29,1.29,0,0,1-.59.48,2.06,2.06,0,0,1-.88.17,2,2,0,0,1-1.23-.33A1.61,1.61,0,0,1,91.92,76.09Z" transform="translate(0)"/><path class="cls-2" d="M99,76l.73.09a1.78,1.78,0,0,1-.64,1,2.16,2.16,0,0,1-2.63-.21A2.21,2.21,0,0,1,96,75.29a2.26,2.26,0,0,1,.54-1.62,2,2,0,0,1,2.76,0,2.27,2.27,0,0,1,.52,1.6v.18h-3.1a1.62,1.62,0,0,0,.39,1,1.16,1.16,0,0,0,.87.37,1,1,0,0,0,.66-.21A1.28,1.28,0,0,0,99,76Zm-2.31-1.13h2.32a1.39,1.39,0,0,0-.27-.79,1.06,1.06,0,0,0-.87-.4,1.09,1.09,0,0,0-.81.32A1.32,1.32,0,0,0,96.73,74.86Z" transform="translate(0)"/><path class="cls-2" d="M100.64,77.33V73.18h.64v.63a1.67,1.67,0,0,1,.44-.58.76.76,0,0,1,.46-.14,1.39,1.39,0,0,1,.72.22l-.24.66a1,1,0,0,0-.52-.16.68.68,0,0,0-.41.14.75.75,0,0,0-.27.39,3,3,0,0,0-.11.82v2.17Z" transform="translate(0)"/><path class="cls-2" d="M103,76.09l.7-.11a1,1,0,0,0,.33.64,1.35,1.35,0,0,0,1.46,0,.59.59,0,0,0,.24-.47.43.43,0,0,0-.21-.37,3.52,3.52,0,0,0-.72-.24,6.18,6.18,0,0,1-1.07-.34,1,1,0,0,1-.45-.39,1,1,0,0,1-.16-.56,1,1,0,0,1,.13-.51,1.07,1.07,0,0,1,.34-.39,1.58,1.58,0,0,1,.45-.21,2,2,0,0,1,.61-.08,2.28,2.28,0,0,1,.86.14,1.17,1.17,0,0,1,.54.38,1.38,1.38,0,0,1,.24.64l-.68.1a.69.69,0,0,0-.28-.5.91.91,0,0,0-.63-.18,1.13,1.13,0,0,0-.69.16.45.45,0,0,0-.21.37.4.4,0,0,0,.09.25.71.71,0,0,0,.27.18,6.05,6.05,0,0,0,.62.18c.5.14.84.25,1,.33a1,1,0,0,1,.46.37,1,1,0,0,1,.17.6,1.13,1.13,0,0,1-.21.66,1.24,1.24,0,0,1-.59.48,2,2,0,0,1-.87.17,2,2,0,0,1-1.23-.33A1.57,1.57,0,0,1,103,76.09Z" transform="translate(0)"/><rect class="cls-2" x="109.76" y="71.6" width="0.76" height="5.73"/><path class="cls-2" d="M111.76,77.33V73.18h.63v.59a1.49,1.49,0,0,1,1.32-.68,1.73,1.73,0,0,1,.69.13,1,1,0,0,1,.47.36,1.17,1.17,0,0,1,.22.52,3.48,3.48,0,0,1,0,.68v2.55h-.7V74.81a2.11,2.11,0,0,0-.08-.65.73.73,0,0,0-.29-.34,1,1,0,0,0-.49-.12,1.15,1.15,0,0,0-.78.28,1.39,1.39,0,0,0-.33,1.08v2.27Z" transform="translate(0)"/><path class="cls-2" d="M117.75,76.7l.1.62a2.77,2.77,0,0,1-.53.06,1.22,1.22,0,0,1-.6-.12.6.6,0,0,1-.29-.32,2.37,2.37,0,0,1-.09-.83V73.73h-.52v-.55h.52v-1l.7-.42v1.45h.71v.55H117v2.42a1.09,1.09,0,0,0,0,.39l.12.14a.48.48,0,0,0,.24,0Z" transform="translate(0)"/><path class="cls-2" d="M121.27,76l.73.09a1.72,1.72,0,0,1-.64,1,1.86,1.86,0,0,1-1.18.35,1.89,1.89,0,0,1-1.45-.56,2.21,2.21,0,0,1-.53-1.57,2.26,2.26,0,0,1,.54-1.62,2,2,0,0,1,2.76,0,2.27,2.27,0,0,1,.52,1.6v.18h-3.09a1.57,1.57,0,0,0,.38,1,1.16,1.16,0,0,0,.87.37,1,1,0,0,0,.66-.21A1.28,1.28,0,0,0,121.27,76ZM119,74.86h2.32a1.47,1.47,0,0,0-.26-.79,1.18,1.18,0,0,0-1.69-.08A1.32,1.32,0,0,0,119,74.86Z" transform="translate(0)"/><path class="cls-2" d="M122.87,77.33V73.18h.64v.63a1.67,1.67,0,0,1,.44-.58.76.76,0,0,1,.46-.14,1.39,1.39,0,0,1,.72.22l-.24.66a1,1,0,0,0-.52-.16A.68.68,0,0,0,124,74a.81.81,0,0,0-.27.39,3,3,0,0,0-.11.82v2.17Z" transform="translate(0)"/><path class="cls-2" d="M128.25,76.82a2.87,2.87,0,0,1-.75.47,2.19,2.19,0,0,1-.77.13,1.5,1.5,0,0,1-1-.33,1.09,1.09,0,0,1-.37-.85,1.16,1.16,0,0,1,.14-.56,1.19,1.19,0,0,1,.36-.41,2,2,0,0,1,.51-.23,5.34,5.34,0,0,1,.62-.1,6.71,6.71,0,0,0,1.25-.24,1.77,1.77,0,0,0,0-.19.77.77,0,0,0-.2-.6,1.18,1.18,0,0,0-.8-.24,1.27,1.27,0,0,0-.73.17,1,1,0,0,0-.35.62l-.69-.1a1.72,1.72,0,0,1,.31-.71,1.36,1.36,0,0,1,.62-.42,3,3,0,0,1,.94-.14,2.54,2.54,0,0,1,.86.12,1.1,1.1,0,0,1,.49.32,1,1,0,0,1,.22.48,4,4,0,0,1,0,.64v.94a10.35,10.35,0,0,0,0,1.24,1.58,1.58,0,0,0,.18.5h-.74A1.59,1.59,0,0,1,128.25,76.82Zm-.06-1.57a5.12,5.12,0,0,1-1.14.26,2.76,2.76,0,0,0-.62.14.62.62,0,0,0-.27.23.57.57,0,0,0-.1.34.59.59,0,0,0,.21.46.89.89,0,0,0,.62.19,1.44,1.44,0,0,0,.73-.18,1.07,1.07,0,0,0,.46-.48,1.65,1.65,0,0,0,.11-.7Z" transform="translate(0)"/><path class="cls-2" d="M132.7,75.81l.69.09a1.72,1.72,0,0,1-.58,1.12,1.67,1.67,0,0,1-1.14.4,1.77,1.77,0,0,1-1.37-.55,2.25,2.25,0,0,1-.52-1.6A3,3,0,0,1,130,74.1a1.58,1.58,0,0,1,.68-.76,2,2,0,0,1,1-.25,1.73,1.73,0,0,1,1.11.34,1.6,1.6,0,0,1,.55,1l-.69.11a1.13,1.13,0,0,0-.34-.63.91.91,0,0,0-.6-.21,1.07,1.07,0,0,0-.86.38,1.74,1.74,0,0,0-.34,1.2,1.92,1.92,0,0,0,.32,1.22,1.07,1.07,0,0,0,.84.38,1,1,0,0,0,.69-.26A1.24,1.24,0,0,0,132.7,75.81Z" transform="translate(0)"/><path class="cls-2" d="M135.53,76.7l.1.62a2.61,2.61,0,0,1-.53.06,1.21,1.21,0,0,1-.59-.12.66.66,0,0,1-.3-.32,2.37,2.37,0,0,1-.09-.83V73.73h-.51v-.55h.51v-1l.7-.42v1.45h.71v.55h-.71v2.42a1.4,1.4,0,0,0,0,.39l.12.14a.54.54,0,0,0,.24,0Z" transform="translate(0)"/><polyline class="cls-2" points="7.4 82.1 136.38 82.1 136.38 81.1 7.4 81.1"/><path class="cls-2" d="M14.26,88.13a2.71,2.71,0,0,1,.67-2,2.26,2.26,0,0,1,1.73-.7,2.41,2.41,0,0,1,1.25.33,2.22,2.22,0,0,1,.85.92,3.11,3.11,0,0,1,.29,1.35,2.87,2.87,0,0,1-.31,1.36,2,2,0,0,1-.87.91,2.46,2.46,0,0,1-1.22.31,2.33,2.33,0,0,1-1.26-.34,2.31,2.31,0,0,1-.85-.93A2.85,2.85,0,0,1,14.26,88.13Zm.68,0a2,2,0,0,0,.49,1.42,1.68,1.68,0,0,0,2.45,0,2.15,2.15,0,0,0,.49-1.5A2.51,2.51,0,0,0,18.16,87a1.57,1.57,0,0,0-.61-.71,1.59,1.59,0,0,0-.89-.25,1.7,1.7,0,0,0-1.21.48A2.15,2.15,0,0,0,14.94,88.14Z" transform="translate(0)"/><path class="cls-2" d="M19.83,90.57V86.94h.55v.51a1.3,1.3,0,0,1,1.15-.6,1.54,1.54,0,0,1,.61.12,1,1,0,0,1,.41.31,1.12,1.12,0,0,1,.19.46,3.6,3.6,0,0,1,0,.6v2.23h-.62V88.36a1.58,1.58,0,0,0-.07-.56.55.55,0,0,0-.26-.3.82.82,0,0,0-.42-.11,1,1,0,0,0-.68.25,1.21,1.21,0,0,0-.29.94v2Z" transform="translate(0)"/><rect class="cls-2" x="23.71" y="85.56" width="0.62" height="5.01"/><path class="cls-2" d="M25.28,86.26v-.7h.61v.7Zm0,4.31V86.94h.61v3.63Z" transform="translate(0)"/><path class="cls-2" d="M26.83,90.57V86.94h.55v.51a1.31,1.31,0,0,1,1.16-.6,1.46,1.46,0,0,1,.6.12,1,1,0,0,1,.41.31,1.12,1.12,0,0,1,.19.46,2.74,2.74,0,0,1,0,.6v2.23h-.62V88.36a1.58,1.58,0,0,0-.07-.56.57.57,0,0,0-.25-.3.86.86,0,0,0-.43-.11,1,1,0,0,0-.68.25,1.21,1.21,0,0,0-.29.94v2Z" transform="translate(0)"/><path class="cls-2" d="M33.21,89.4l.63.08a1.52,1.52,0,0,1-.55.86,1.65,1.65,0,0,1-1,.31A1.68,1.68,0,0,1,31,90.16a1.93,1.93,0,0,1-.46-1.38A2,2,0,0,1,31,87.36a1.58,1.58,0,0,1,1.22-.51,1.54,1.54,0,0,1,1.19.5,2,2,0,0,1,.46,1.4v.16H31.15a1.48,1.48,0,0,0,.34.92,1,1,0,0,0,.76.31,1,1,0,0,0,.58-.17A1.24,1.24,0,0,0,33.21,89.4Zm-2-1h2a1.14,1.14,0,0,0-.23-.68.93.93,0,0,0-.76-.36,1,1,0,0,0-.71.28A1.15,1.15,0,0,0,31.19,88.4Z" transform="translate(0)"/><path class="cls-2" d="M36.62,90.57v-5h1L38.8,89.1q.16.5.24.75l.27-.81,1.2-3.48h.89v5h-.64v-4.2l-1.45,4.2h-.6L37.26,86.3v4.27Z" transform="translate(0)"/><path class="cls-2" d="M44.77,90.57V90a1.33,1.33,0,0,1-1.15.62,1.46,1.46,0,0,1-.6-.12,1.09,1.09,0,0,1-.42-.31,1.27,1.27,0,0,1-.19-.46,3.85,3.85,0,0,1,0-.57V86.94H43v2a3.12,3.12,0,0,0,0,.65.63.63,0,0,0,.25.38.76.76,0,0,0,.46.14,1,1,0,0,0,.52-.14.8.8,0,0,0,.34-.39,1.88,1.88,0,0,0,.1-.71V86.94h.62v3.63Z" transform="translate(0)"/><path class="cls-2" d="M46,89.48l.61-.09a.86.86,0,0,0,.28.56,1,1,0,0,0,.66.19,1,1,0,0,0,.63-.17.54.54,0,0,0,.2-.4.38.38,0,0,0-.18-.33,2.41,2.41,0,0,0-.63-.21,5,5,0,0,1-.94-.3.9.9,0,0,1-.53-.83,1,1,0,0,1,.11-.45,1.1,1.1,0,0,1,.3-.34,1.36,1.36,0,0,1,.4-.18,1.78,1.78,0,0,1,.53-.08,2.18,2.18,0,0,1,.75.13,1,1,0,0,1,.47.33,1.24,1.24,0,0,1,.22.56l-.61.09a.62.62,0,0,0-.23-.44.85.85,0,0,0-.56-.16,1,1,0,0,0-.6.14.4.4,0,0,0-.18.33l.07.21a.5.5,0,0,0,.24.17l.54.16a7.58,7.58,0,0,1,.91.28.94.94,0,0,1,.41.32,1,1,0,0,1,.14.53,1,1,0,0,1-.18.58,1.18,1.18,0,0,1-.51.42,1.92,1.92,0,0,1-.77.15,1.69,1.69,0,0,1-1.08-.3A1.33,1.33,0,0,1,46,89.48Z" transform="translate(0)"/><path class="cls-2" d="M49.79,86.26v-.7h.61v.7Zm0,4.31V86.94h.61v3.63Z" transform="translate(0)"/><path class="cls-2" d="M53.71,89.24l.6.08a1.52,1.52,0,0,1-.5,1,1.49,1.49,0,0,1-1,.36,1.53,1.53,0,0,1-1.19-.49,1.94,1.94,0,0,1-.46-1.4,2.47,2.47,0,0,1,.2-1,1.28,1.28,0,0,1,.59-.66,1.74,1.74,0,0,1,.87-.23,1.49,1.49,0,0,1,1,.3,1.4,1.4,0,0,1,.49.85l-.6.1a1,1,0,0,0-.3-.55.78.78,0,0,0-.53-.19,1,1,0,0,0-.76.33,1.64,1.64,0,0,0-.29,1.06,1.66,1.66,0,0,0,.28,1.06.94.94,0,0,0,.74.33.84.84,0,0,0,.6-.22A1.11,1.11,0,0,0,53.71,89.24Z" transform="translate(0)"/><polygon class="cls-2" points="56.86 90.57 56.86 85.56 57.54 85.56 60.17 89.49 60.17 85.56 60.8 85.56 60.8 90.57 60.12 90.57 57.49 86.63 57.49 90.57 56.86 90.57"/><path class="cls-2" d="M61.61,88.75a1.87,1.87,0,0,1,.56-1.49,1.68,1.68,0,0,1,1.14-.41,1.64,1.64,0,0,1,1.23.5A1.86,1.86,0,0,1,65,88.7a2.39,2.39,0,0,1-.21,1.1,1.48,1.48,0,0,1-.61.63,1.88,1.88,0,0,1-.88.22,1.62,1.62,0,0,1-1.23-.49A2,2,0,0,1,61.61,88.75Zm.63,0a1.53,1.53,0,0,0,.31,1,1,1,0,0,0,1.53,0,1.58,1.58,0,0,0,.3-1.06,1.47,1.47,0,0,0-.31-1,1,1,0,0,0-.76-.35,1,1,0,0,0-.76.35A1.5,1.5,0,0,0,62.24,88.75Z" transform="translate(0)"/><path class="cls-2" d="M67.08,90l.08.54a2,2,0,0,1-.46,0,1.07,1.07,0,0,1-.52-.1.59.59,0,0,1-.26-.28,2.3,2.3,0,0,1-.07-.73V87.42h-.46v-.48h.46V86l.61-.37v1.27h.62v.48h-.62v2.12a1.2,1.2,0,0,0,0,.34l.11.12a.37.37,0,0,0,.21,0Z" transform="translate(0)"/><path class="cls-2" d="M69.71,90.57v-5h2.22a3,3,0,0,1,1,.13,1.13,1.13,0,0,1,.56.48,1.42,1.42,0,0,1,.21.75,1.25,1.25,0,0,1-.35.9,1.72,1.72,0,0,1-1.06.47,1.38,1.38,0,0,1,.39.25,3.4,3.4,0,0,1,.56.66l.87,1.37h-.84l-.66-1a7.54,7.54,0,0,0-.48-.69,1.44,1.44,0,0,0-.33-.33.82.82,0,0,0-.31-.13,1.58,1.58,0,0,0-.37,0h-.77v2.23Zm.66-2.8H71.8a2,2,0,0,0,.71-.1.74.74,0,0,0,.39-.3.79.79,0,0,0,.13-.45.72.72,0,0,0-.26-.58,1.21,1.21,0,0,0-.81-.23H70.37Z" transform="translate(0)"/><path class="cls-2" d="M77.05,90.12a2.43,2.43,0,0,1-.66.41,1.91,1.91,0,0,1-.68.12,1.33,1.33,0,0,1-.92-.29,1,1,0,0,1-.32-.75,1,1,0,0,1,.12-.49,1.07,1.07,0,0,1,.32-.35,1.35,1.35,0,0,1,.44-.2l.55-.1a4.63,4.63,0,0,0,1.1-.21V88.1a.68.68,0,0,0-.18-.53,1,1,0,0,0-.7-.21,1.09,1.09,0,0,0-.64.16.93.93,0,0,0-.3.53l-.6-.08a1.41,1.41,0,0,1,.27-.62,1.16,1.16,0,0,1,.54-.37,2.56,2.56,0,0,1,.82-.13A2.31,2.31,0,0,1,77,87a1.19,1.19,0,0,1,.43.28,1,1,0,0,1,.19.42,3.49,3.49,0,0,1,0,.57v.82a7.84,7.84,0,0,0,0,1.08,1.21,1.21,0,0,0,.15.44h-.64A1.48,1.48,0,0,1,77.05,90.12Zm0-1.37A5.13,5.13,0,0,1,76,89a2.47,2.47,0,0,0-.54.12.59.59,0,0,0-.24.2.51.51,0,0,0-.08.29.52.52,0,0,0,.18.41.82.82,0,0,0,.55.17,1.34,1.34,0,0,0,.63-.16,1,1,0,0,0,.41-.42A1.63,1.63,0,0,0,77,89Z" transform="translate(0)"/><path class="cls-2" d="M79.91,90l.09.54a2,2,0,0,1-.46,0,1,1,0,0,1-.52-.1.59.59,0,0,1-.26-.28,2.21,2.21,0,0,1-.08-.73V87.42h-.45v-.48h.45V86l.61-.37v1.27h.62v.48h-.62v2.12a1.08,1.08,0,0,0,0,.34l.1.12a.41.41,0,0,0,.21,0Z" transform="translate(0)"/><path class="cls-2" d="M83,89.4l.64.08a1.53,1.53,0,0,1-.56.86,1.88,1.88,0,0,1-2.3-.18,1.94,1.94,0,0,1-.47-1.38,2,2,0,0,1,.47-1.42A1.6,1.6,0,0,1,82,86.85a1.53,1.53,0,0,1,1.18.5,2,2,0,0,1,.47,1.4v.16H81a1.42,1.42,0,0,0,.33.92,1,1,0,0,0,.76.31,1,1,0,0,0,.58-.17A1.17,1.17,0,0,0,83,89.4Zm-2-1h2a1.21,1.21,0,0,0-.24-.68.93.93,0,0,0-.76-.36,1,1,0,0,0-.71.28A1.15,1.15,0,0,0,81,88.4Z" transform="translate(0)"/><path class="cls-2" d="M86.76,90.57v-.46a1.13,1.13,0,0,1-1,.54,1.42,1.42,0,0,1-.8-.24,1.55,1.55,0,0,1-.56-.67,2.17,2.17,0,0,1-.2-1,2.57,2.57,0,0,1,.18-1,1.42,1.42,0,0,1,1.35-.92,1.28,1.28,0,0,1,.59.14,1.44,1.44,0,0,1,.41.36V85.56h.61v5Zm-1.94-1.81a1.61,1.61,0,0,0,.29,1,.89.89,0,0,0,.7.34.88.88,0,0,0,.68-.33,1.49,1.49,0,0,0,.28-1,1.73,1.73,0,0,0-.28-1.1.91.91,0,0,0-.71-.35.89.89,0,0,0-.69.34A1.66,1.66,0,0,0,84.82,88.76Z" transform="translate(0)"/><path class="cls-2" d="M90.81,90.57h-.57v-5h.62v1.78a1.23,1.23,0,0,1,1-.49,1.53,1.53,0,0,1,.64.14,1.32,1.32,0,0,1,.49.38,1.73,1.73,0,0,1,.3.59,2.5,2.5,0,0,1,.11.74,2.06,2.06,0,0,1-.46,1.44,1.45,1.45,0,0,1-1.11.51,1.16,1.16,0,0,1-1-.54Zm0-1.85a2,2,0,0,0,.17,1,.91.91,0,0,0,.79.47.87.87,0,0,0,.7-.35,2.06,2.06,0,0,0,0-2.09.86.86,0,0,0-.68-.34.9.9,0,0,0-.7.35A1.5,1.5,0,0,0,90.81,88.72Z" transform="translate(0)"/><path class="cls-2" d="M94.11,92,94,91.39a1.72,1.72,0,0,0,.36,0,.61.61,0,0,0,.32-.07l.21-.19a3.28,3.28,0,0,0,.18-.46l.06-.15-1.38-3.63h.66l.76,2.1c.1.27.18.55.26.84.07-.28.16-.56.25-.83l.78-2.11h.62l-1.39,3.69a6.22,6.22,0,0,1-.34.82,1.33,1.33,0,0,1-.38.45.92.92,0,0,1-.5.14A1.29,1.29,0,0,1,94.11,92Z" transform="translate(0)"/><path class="cls-2" d="M100.93,90l.09.54a2.09,2.09,0,0,1-.47,0,1.07,1.07,0,0,1-.52-.1.59.59,0,0,1-.26-.28,2.3,2.3,0,0,1-.07-.73V87.42h-.45v-.48h.45V86l.61-.37v1.27h.62v.48h-.62v2.12a1.2,1.2,0,0,0,0,.34l.11.12a.41.41,0,0,0,.21,0Z" transform="translate(0)"/><path class="cls-2" d="M101.53,90.57v-5h.61v1.79a1.39,1.39,0,0,1,1.09-.5,1.54,1.54,0,0,1,.7.16,1,1,0,0,1,.43.44,2.15,2.15,0,0,1,.13.82v2.3h-.62v-2.3a1,1,0,0,0-.2-.67.7.7,0,0,0-.56-.22,1,1,0,0,0-.52.15.78.78,0,0,0-.34.38,1.73,1.73,0,0,0-.11.67v2Z" transform="translate(0)"/><path class="cls-2" d="M107.91,89.4l.63.08a1.52,1.52,0,0,1-.55.86,1.89,1.89,0,0,1-2.31-.18,1.93,1.93,0,0,1-.46-1.38,2,2,0,0,1,.47-1.42,1.58,1.58,0,0,1,1.22-.51,1.55,1.55,0,0,1,1.19.5,2,2,0,0,1,.46,1.4v.16h-2.71a1.48,1.48,0,0,0,.34.92,1,1,0,0,0,.76.31,1,1,0,0,0,.58-.17A1.24,1.24,0,0,0,107.91,89.4Zm-2-1h2a1.14,1.14,0,0,0-.23-.68.94.94,0,0,0-.76-.36,1,1,0,0,0-.71.28A1.11,1.11,0,0,0,105.89,88.4Z" transform="translate(0)"/><polygon class="cls-2" points="111.35 90.57 111.35 85.56 114.98 85.56 114.98 86.15 112.02 86.15 112.02 87.68 114.79 87.68 114.79 88.27 112.02 88.27 112.02 89.98 115.09 89.98 115.09 90.57 111.35 90.57"/><path class="cls-2" d="M115.78,89l.63-.06a1.51,1.51,0,0,0,.2.62,1.16,1.16,0,0,0,.51.39,1.89,1.89,0,0,0,.77.15,1.78,1.78,0,0,0,.67-.12.88.88,0,0,0,.43-.3.78.78,0,0,0,.14-.43.63.63,0,0,0-.14-.42,1.06,1.06,0,0,0-.45-.29,7,7,0,0,0-.89-.24,5.12,5.12,0,0,1-1-.32,1.34,1.34,0,0,1-.53-.46,1.16,1.16,0,0,1-.18-.63,1.24,1.24,0,0,1,.22-.71,1.33,1.33,0,0,1,.63-.5,2.43,2.43,0,0,1,.92-.17,2.48,2.48,0,0,1,1,.18,1.46,1.46,0,0,1,.9,1.32L119,87a1,1,0,0,0-.34-.71,1.38,1.38,0,0,0-.88-.24,1.43,1.43,0,0,0-.87.21.66.66,0,0,0-.28.54.56.56,0,0,0,.2.44,2.54,2.54,0,0,0,1,.36,6.5,6.5,0,0,1,1.11.32,1.45,1.45,0,0,1,.64.51,1.24,1.24,0,0,1,.21.71,1.41,1.41,0,0,1-.23.76,1.58,1.58,0,0,1-.66.55,2.25,2.25,0,0,1-1,.19,2.71,2.71,0,0,1-1.14-.2,1.56,1.56,0,0,1-.72-.59A1.68,1.68,0,0,1,115.78,89Z" transform="translate(0)"/><path class="cls-2" d="M120.69,90.57v-5h2.22a3,3,0,0,1,1,.13,1.07,1.07,0,0,1,.55.48,1.42,1.42,0,0,1,.21.75,1.25,1.25,0,0,1-.34.9,1.75,1.75,0,0,1-1.07.47,1.31,1.31,0,0,1,.4.25,3.38,3.38,0,0,1,.55.66l.87,1.37h-.83l-.66-1q-.3-.45-.48-.69a1.45,1.45,0,0,0-.34-.33.78.78,0,0,0-.3-.13,1.64,1.64,0,0,0-.37,0h-.77v2.23Zm.66-2.8h1.42a2,2,0,0,0,.72-.1.74.74,0,0,0,.39-.3.87.87,0,0,0,.13-.45.75.75,0,0,0-.26-.58,1.21,1.21,0,0,0-.81-.23h-1.59Z" transform="translate(0)"/><path class="cls-2" d="M125.7,90.57v-5h1.88a2.32,2.32,0,0,1,.92.15,1.15,1.15,0,0,1,.55.47,1.23,1.23,0,0,1,.19.66,1.09,1.09,0,0,1-.17.6,1.27,1.27,0,0,1-.53.46,1.3,1.3,0,0,1,.7.45,1.2,1.2,0,0,1,.25.76,1.45,1.45,0,0,1-.15.66,1.27,1.27,0,0,1-.37.47,1.39,1.39,0,0,1-.55.24,3.12,3.12,0,0,1-.81.09Zm.67-2.91h1.08a2.36,2.36,0,0,0,.63-.06.66.66,0,0,0,.38-.25.67.67,0,0,0,.13-.43.78.78,0,0,0-.12-.44.56.56,0,0,0-.34-.26,2.71,2.71,0,0,0-.76-.07h-1Zm0,2.32h1.24a2.39,2.39,0,0,0,.46,0,1,1,0,0,0,.38-.14.66.66,0,0,0,.25-.27.88.88,0,0,0,.1-.43.85.85,0,0,0-.14-.48.74.74,0,0,0-.4-.29,2.35,2.35,0,0,0-.74-.09h-1.15Z" transform="translate(0)"/></svg>