<svg width="105" height="25" viewBox="0 0 105 25" fill="none" xmlns="http://www.w3.org/2000/svg">
<path d="M104.99 11.305V9.25472H102.694V6.04901L102.613 6.07166L100.46 6.80796L100.419 6.81929V9.25472H97.0169V7.89541C97.0169 7.26106 97.1388 6.7853 97.3927 6.46813C97.6466 6.15096 97.9919 5.99237 98.4388 5.99237C98.7822 6.00026 99.1207 6.08501 99.4342 6.24158L99.5154 6.28689V4.12332L99.4748 4.11199C99.064 3.97016 98.635 3.90509 98.2052 3.91942C97.5751 3.90563 96.9524 4.0734 96.3973 4.40651C95.8741 4.72009 95.4437 5.19621 95.1582 5.77715C94.8596 6.3921 94.7091 7.08292 94.7215 7.78213V9.25472H93.137V11.3163H94.7316V19.9933H97.027V11.3163H100.43V16.8329C100.43 19.0984 101.394 20.2538 103.284 20.2538C103.612 20.2503 103.938 20.2085 104.259 20.1292C104.505 20.0856 104.745 20.0016 104.97 19.88L105 19.8573V17.7844L104.909 17.8524C104.767 17.9522 104.613 18.0285 104.452 18.0789C104.303 18.1309 104.15 18.1613 103.995 18.1695C103.548 18.1695 103.223 18.0336 103.02 17.7731C102.816 17.5125 102.705 17.0481 102.705 16.3911V11.3277L104.99 11.305ZM88.018 18.1582C87.1852 18.1582 86.5352 17.8524 86.068 17.2407C85.6008 16.629 85.3671 15.7681 85.3671 14.658C85.3671 13.5252 85.6008 12.6303 86.068 12.0073C86.5352 11.3843 87.175 11.0785 87.9977 11.0785C88.79 11.0785 89.4298 11.373 89.8767 11.962C90.3236 12.551 90.5674 13.4346 90.5674 14.59C90.5674 15.7454 90.3541 16.6516 89.9174 17.252C89.5009 17.8524 88.8611 18.1582 88.018 18.1582ZM88.1196 8.99418C86.5352 8.99418 85.2757 9.51525 84.3718 10.5347C83.4679 11.5542 83.021 12.9702 83.021 14.7486C83.021 16.4251 83.4678 17.7844 84.3413 18.7699C85.2148 19.7554 86.4133 20.2538 87.886 20.2538C89.4197 20.2538 90.6588 19.7327 91.5627 18.6906C92.4667 17.6485 92.9136 16.2552 92.9136 14.522C92.9136 12.8116 92.487 11.4523 91.644 10.4781C90.801 9.50393 89.6228 8.99418 88.1196 8.99418ZM79.3239 8.99418C78.2473 8.99418 77.3535 9.30003 76.673 9.91172C76.3443 10.189 76.0791 10.549 75.8991 10.9625C75.719 11.3759 75.6292 11.831 75.637 12.2905C75.6278 12.7485 75.7039 13.2037 75.8605 13.6272C76.0139 14.0145 76.247 14.356 76.541 14.624C76.8457 14.9072 77.3129 15.1904 77.9324 15.4962C78.3291 15.6696 78.7158 15.8701 79.0903 16.0966C79.2865 16.2107 79.4594 16.3688 79.5981 16.561C79.7001 16.7441 79.7497 16.9574 79.7403 17.1727C79.7403 17.8977 79.2528 18.2488 78.2575 18.2488C77.8313 18.2357 77.4097 18.1478 77.0082 17.9883C76.5503 17.8227 76.1185 17.578 75.7284 17.2633L75.637 17.184V19.6421L75.6675 19.6648C76.0581 19.8558 76.4671 19.9964 76.8863 20.0839C77.3132 20.1905 77.7489 20.2475 78.1864 20.2538C79.3544 20.2538 80.299 19.948 80.9896 19.3363C81.3234 19.0506 81.592 18.6812 81.7738 18.2581C81.9555 17.8349 82.0453 17.3699 82.0358 16.9008C82.0505 16.2312 81.8526 15.5773 81.4771 15.0544C81.1115 14.556 80.4615 14.1029 79.5677 13.6951C78.8567 13.378 78.3997 13.1061 78.2067 12.9022C78.0137 12.6983 77.9324 12.4264 77.9324 12.0753C77.9296 11.9253 77.9596 11.7768 78.0198 11.6426C78.0799 11.5084 78.1685 11.3925 78.2778 11.305C78.5114 11.1011 78.8465 10.9992 79.2528 10.9992C79.6459 11.0004 80.0364 11.0692 80.4107 11.2031C80.7699 11.3215 81.112 11.497 81.4264 11.7241L81.5178 11.7921V9.45861L81.4771 9.43596C81.1471 9.28727 80.8029 9.18087 80.4513 9.11879C80.0793 9.04238 79.7022 9.0007 79.3239 8.99418ZM69.6649 18.1582C68.832 18.1582 68.182 17.8524 67.7148 17.2407C67.2476 16.629 67.014 15.7681 67.014 14.658C67.014 13.5252 67.2476 12.6303 67.7148 12.0073C68.182 11.3843 68.8219 11.0785 69.6446 11.0785C70.4368 11.0785 71.0767 11.373 71.5236 11.962C71.9705 12.551 72.2142 13.4346 72.2142 14.59C72.2142 15.7454 72.0009 16.6516 71.5642 17.252C71.1275 17.8524 70.4977 18.1582 69.6649 18.1582ZM69.7665 8.99418C68.182 8.99418 66.9226 9.51525 66.0186 10.5347C65.1147 11.5542 64.6678 12.9702 64.6678 14.7486C64.6678 16.4251 65.1147 17.7844 65.9882 18.7699C66.8616 19.7554 68.0601 20.2538 69.5329 20.2538C71.0665 20.2538 72.3056 19.7327 73.2096 18.6906C74.1135 17.6485 74.5604 16.2552 74.5604 14.522C74.5604 12.8116 74.1338 11.4523 73.2908 10.4781C72.4478 9.50393 71.2595 8.99418 69.7665 8.99418ZM61.184 11.1124V9.25472H58.9191V19.9933H61.184V14.4994C61.184 13.5705 61.377 12.8003 61.7528 12.2225C61.9117 11.9531 62.1291 11.7328 62.3848 11.5823C62.6405 11.4318 62.9263 11.3559 63.2154 11.3617C63.4459 11.3636 63.6749 11.4018 63.8959 11.4749C64.0813 11.5254 64.2592 11.6055 64.424 11.7128L64.5154 11.7921V9.24339L64.4748 9.22074C64.1917 9.10803 63.8915 9.05801 63.5912 9.07348C63.039 9.06781 62.5028 9.28051 62.0778 9.67384C61.6919 10.025 61.4176 10.5121 61.2044 11.1124H61.184ZM54.8666 8.99418C53.8306 8.99418 52.9063 9.24339 52.1141 9.73048C51.334 10.2056 50.7004 10.9319 50.2961 11.8148C49.8796 12.6983 49.6765 13.7404 49.6765 14.8959C49.6634 15.8603 49.8733 16.8121 50.2859 17.6598C50.6763 18.465 51.2648 19.1292 51.9821 19.5742C52.7438 20.0281 53.5967 20.2581 54.4603 20.2425C55.5369 20.2425 56.451 20.0046 57.1925 19.5288L57.2229 19.5062V17.1954L57.1315 17.2747C56.7917 17.5472 56.419 17.7646 56.0244 17.9203C55.677 18.0682 55.3094 18.1487 54.9377 18.1582C54.054 18.1582 53.3329 17.8524 52.8149 17.2407C52.2969 16.629 52.0329 15.7681 52.0329 14.692C52.0329 13.6158 52.3071 12.721 52.8454 12.0753C53.3837 11.4296 54.0947 11.1011 54.9681 11.1011C55.7096 11.1011 56.4409 11.3843 57.1214 11.9394L57.2128 12.0187V9.58322L57.1823 9.56056C56.8529 9.37203 56.5004 9.23845 56.1362 9.1641C55.721 9.04824 55.2945 8.99115 54.8666 8.99418ZM48.1124 9.25472H45.8474V19.9933H48.1124V9.25472ZM47.0053 4.67837C46.8276 4.67346 46.6508 4.70798 46.4851 4.77993C46.3195 4.85188 46.1683 4.95983 46.0404 5.09749C45.9104 5.23165 45.8071 5.39472 45.7371 5.57617C45.6671 5.75763 45.632 5.95344 45.6341 6.15096C45.6306 6.34432 45.6641 6.53629 45.7324 6.71405C45.8007 6.89181 45.9023 7.05127 46.0302 7.18177C46.2923 7.45212 46.6383 7.59834 46.9951 7.58956C47.355 7.59833 47.7042 7.45231 47.9702 7.18177C48.1 7.0523 48.2034 6.8933 48.2735 6.71549C48.3436 6.53767 48.3787 6.34517 48.3764 6.15096C48.3793 5.95603 48.3456 5.76258 48.2774 5.58309C48.2092 5.40359 48.108 5.24203 47.9803 5.10882C47.8528 4.9666 47.7005 4.85504 47.5328 4.78101C47.3651 4.70698 47.1856 4.67205 47.0053 4.67837ZM41.3582 8.46179V19.9933H43.6739V5.00687H40.4745L36.4118 16.1306L32.471 5.00687H29.1396V19.982H31.3132V8.46179H31.3843L35.5485 19.9933H37.1838L41.2769 8.46179H41.3582Z" fill="white"/>
<path d="M10.6544 11.8826H0V0H10.6544V11.8826Z" fill="#F35325"/>
<path d="M22.4159 11.8826H11.7615V0H22.4159V11.8826Z" fill="#81BC06"/>
<path d="M10.6544 25.0001H0V13.1174H10.6544V25.0001Z" fill="#05A6F0"/>
<path d="M22.4159 25.0001H11.7615V13.1174H22.4159V25.0001Z" fill="#FFBA08"/>
</svg>
